<svg id="SvgjsSvg1001" width="297mm" height="210mm" xmlns="http://www.w3.org/2000/svg" version="1.1" xmlns:xlink="http://www.w3.org/1999/xlink" xmlns:svgjs="http://svgjs.com/svgjs" preserveAspectRatio="xMidYMid" viewBox="0 0 297 210"><rect id="SvgjsRect3337" width="297" height="210" x="0" y="0" stroke="#000000" stroke-width="0.2" stroke-opacity="1" fill="none" fill-opacity="1" stroke-linecap="round"></rect><g id="SvgjsG3338" transform="matrix(1,0,0,1,-145,-60)"><g id="SvgjsG3339" transform="matrix(1,0,0,1,210,120)"><line id="SvgjsLine3340" x1="20" y1="0" x2="6.180339887498949" y2="19.02113032590307" stroke="#ff0000" stroke-width="1" stroke-opacity="1" stroke-linecap="round"></line><line id="SvgjsLine3341" x1="6.180339887498949" y1="19.02113032590307" x2="-16.180339887498945" y2="11.755705045849465" stroke="#ff0000" stroke-width="1" stroke-opacity="1" stroke-linecap="round"></line><line id="SvgjsLine3342" x1="-16.180339887498945" y1="11.755705045849465" x2="-16.180339887498953" y2="-11.75570504584946" stroke="#ff0000" stroke-width="1" stroke-opacity="1" stroke-linecap="round"></line><line id="SvgjsLine3343" x1="-16.180339887498953" y1="-11.75570504584946" x2="6.180339887498945" y2="-19.021130325903073" stroke="#ff0000" stroke-width="1" stroke-opacity="1" stroke-linecap="round"></line><line id="SvgjsLine3344" x1="6.180339887498945" y1="-19.021130325903073" x2="20" y2="-4.898587196589413e-15" stroke="#ff0000" stroke-width="1" stroke-opacity="1" stroke-linecap="round"></line></g><g id="SvgjsG3345" transform="matrix(1,0,0,1,252,144)"><line id="SvgjsLine3346" x1="20" y1="0" x2="10.000000000000002" y2="17.32050807568877" stroke="#ccff00" stroke-width="1" stroke-opacity="1" stroke-linecap="round"></line><line id="SvgjsLine3347" x1="10.000000000000002" y1="17.32050807568877" x2="-9.999999999999996" y2="17.320508075688775" stroke="#ccff00" stroke-width="1" stroke-opacity="1" stroke-linecap="round"></line><line id="SvgjsLine3348" x1="-9.999999999999996" y1="17.320508075688775" x2="-20" y2="2.4492935982947065e-15" stroke="#ccff00" stroke-width="1" stroke-opacity="1" stroke-linecap="round"></line><line id="SvgjsLine3349" x1="-20" y1="2.4492935982947065e-15" x2="-10.000000000000009" y2="-17.320508075688767" stroke="#ccff00" stroke-width="1" stroke-opacity="1" stroke-linecap="round"></line><line id="SvgjsLine3350" x1="-10.000000000000009" y1="-17.320508075688767" x2="10.000000000000002" y2="-17.32050807568877" stroke="#ccff00" stroke-width="1" stroke-opacity="1" stroke-linecap="round"></line><line id="SvgjsLine3351" x1="10.000000000000002" y1="-17.32050807568877" x2="20" y2="-4.898587196589413e-15" stroke="#ccff00" stroke-width="1" stroke-opacity="1" stroke-linecap="round"></line></g><g id="SvgjsG3352" transform="matrix(1,0,0,1,294,168)"><line id="SvgjsLine3353" x1="20" y1="0" x2="12.469796037174671" y2="15.636629649360597" stroke="#00ff65" stroke-width="1" stroke-opacity="1" stroke-linecap="round"></line><line id="SvgjsLine3354" x1="12.469796037174671" y1="15.636629649360597" x2="-4.450418679126287" y2="19.498558243636474" stroke="#00ff65" stroke-width="1" stroke-opacity="1" stroke-linecap="round"></line><line id="SvgjsLine3355" x1="-4.450418679126287" y1="19.498558243636474" x2="-18.01937735804838" y2="8.677674782351165" stroke="#00ff65" stroke-width="1" stroke-opacity="1" stroke-linecap="round"></line><line id="SvgjsLine3356" x1="-18.01937735804838" y1="8.677674782351165" x2="-18.019377358048384" y2="-8.67767478235116" stroke="#00ff65" stroke-width="1" stroke-opacity="1" stroke-linecap="round"></line><line id="SvgjsLine3357" x1="-18.019377358048384" y1="-8.67767478235116" x2="-4.450418679126292" y2="-19.498558243636474" stroke="#00ff65" stroke-width="1" stroke-opacity="1" stroke-linecap="round"></line><line id="SvgjsLine3358" x1="-4.450418679126292" y1="-19.498558243636474" x2="12.469796037174667" y2="-15.636629649360598" stroke="#00ff65" stroke-width="1" stroke-opacity="1" stroke-linecap="round"></line><line id="SvgjsLine3359" x1="12.469796037174667" y1="-15.636629649360598" x2="20" y2="-4.898587196589413e-15" stroke="#00ff65" stroke-width="1" stroke-opacity="1" stroke-linecap="round"></line></g><g id="SvgjsG3360" transform="matrix(1,0,0,1,336,192)"><line id="SvgjsLine3361" x1="20" y1="0" x2="14.142135623730951" y2="14.14213562373095" stroke="#0065ff" stroke-width="1" stroke-opacity="1" stroke-linecap="round"></line><line id="SvgjsLine3362" x1="14.142135623730951" y1="14.14213562373095" x2="1.2246467991473533e-15" y2="20" stroke="#0065ff" stroke-width="1" stroke-opacity="1" stroke-linecap="round"></line><line id="SvgjsLine3363" x1="1.2246467991473533e-15" y1="20" x2="-14.14213562373095" y2="14.142135623730951" stroke="#0065ff" stroke-width="1" stroke-opacity="1" stroke-linecap="round"></line><line id="SvgjsLine3364" x1="-14.14213562373095" y1="14.142135623730951" x2="-20" y2="2.4492935982947065e-15" stroke="#0065ff" stroke-width="1" stroke-opacity="1" stroke-linecap="round"></line><line id="SvgjsLine3365" x1="-20" y1="2.4492935982947065e-15" x2="-14.142135623730955" y2="-14.14213562373095" stroke="#0065ff" stroke-width="1" stroke-opacity="1" stroke-linecap="round"></line><line id="SvgjsLine3366" x1="-14.142135623730955" y1="-14.14213562373095" x2="-3.673940397442059e-15" y2="-20" stroke="#0065ff" stroke-width="1" stroke-opacity="1" stroke-linecap="round"></line><line id="SvgjsLine3367" x1="-3.673940397442059e-15" y1="-20" x2="14.142135623730947" y2="-14.142135623730955" stroke="#0065ff" stroke-width="1" stroke-opacity="1" stroke-linecap="round"></line><line id="SvgjsLine3368" x1="14.142135623730947" y1="-14.142135623730955" x2="20" y2="-4.898587196589413e-15" stroke="#0065ff" stroke-width="1" stroke-opacity="1" stroke-linecap="round"></line></g><g id="SvgjsG3369" transform="matrix(1,0,0,1,378,216)"><line id="SvgjsLine3370" x1="20" y1="0" x2="15.32088886237956" y2="12.855752193730785" stroke="#cb00ff" stroke-width="1" stroke-opacity="1" stroke-linecap="round"></line><line id="SvgjsLine3371" x1="15.32088886237956" y1="12.855752193730785" x2="3.4729635533386083" y2="19.69615506024416" stroke="#cb00ff" stroke-width="1" stroke-opacity="1" stroke-linecap="round"></line><line id="SvgjsLine3372" x1="3.4729635533386083" y1="19.69615506024416" x2="-9.999999999999996" y2="17.320508075688775" stroke="#cb00ff" stroke-width="1" stroke-opacity="1" stroke-linecap="round"></line><line id="SvgjsLine3373" x1="-9.999999999999996" y1="17.320508075688775" x2="-18.793852415718167" y2="6.840402866513378" stroke="#cb00ff" stroke-width="1" stroke-opacity="1" stroke-linecap="round"></line><line id="SvgjsLine3374" x1="-18.793852415718167" y1="6.840402866513378" x2="-18.79385241571817" y2="-6.840402866513373" stroke="#cb00ff" stroke-width="1" stroke-opacity="1" stroke-linecap="round"></line><line id="SvgjsLine3375" x1="-18.79385241571817" y1="-6.840402866513373" x2="-10.000000000000009" y2="-17.320508075688767" stroke="#cb00ff" stroke-width="1" stroke-opacity="1" stroke-linecap="round"></line><line id="SvgjsLine3376" x1="-10.000000000000009" y1="-17.320508075688767" x2="3.4729635533385994" y2="-19.696155060244163" stroke="#cb00ff" stroke-width="1" stroke-opacity="1" stroke-linecap="round"></line><line id="SvgjsLine3377" x1="3.4729635533385994" y1="-19.696155060244163" x2="15.320888862379556" y2="-12.855752193730792" stroke="#cb00ff" stroke-width="1" stroke-opacity="1" stroke-linecap="round"></line><line id="SvgjsLine3378" x1="15.320888862379556" y1="-12.855752193730792" x2="20" y2="-4.898587196589413e-15" stroke="#cb00ff" stroke-width="1" stroke-opacity="1" stroke-linecap="round"></line></g></g></svg>