<svg id="SvgjsSvg1001" width="297mm" height="210mm" xmlns="http://www.w3.org/2000/svg" version="1.1" xmlns:xlink="http://www.w3.org/1999/xlink" xmlns:svgjs="http://svgjs.com/svgjs" preserveAspectRatio="xMidYMid" viewBox="0 0 297 210"><rect id="SvgjsRect3271" width="297" height="210" x="0" y="0" stroke="#000000" stroke-width="0.2" stroke-opacity="1" fill="none" fill-opacity="1" stroke-linecap="round"></rect><g id="SvgjsG3272" transform="matrix(1,0,0,1,96,96)"><ellipse id="SvgjsEllipse3273" rx="64" ry="64" cx="0" cy="0" stroke="#000000" stroke-width="0.2" stroke-opacity="1" fill="none" fill-opacity="1" stroke-linecap="round"></ellipse><text id="SvgjsText3274" font-family="Times New Roman" x="0" y="0" font-size="7" stroke="#000000" stroke-width="0.2" stroke-opacity="1" fill="#000000" fill-opacity="1" svgjs:data="{&quot;leading&quot;:&quot;1.3&quot;}"><tspan id="SvgjsTspan3275" dy="9.1" x="0" svgjs:data="{&quot;newLined&quot;:true}">ä¸­å¿ƒ (0, 0)</tspan></text><g id="SvgjsG3276" transform="matrix(1,0,0,1,0,0)"><line id="SvgjsLine3277" x1="0" y1="0" x2="64" y2="0" stroke="#000000" stroke-width="0.2" stroke-opacity="1" stroke-linecap="round"></line><ellipse id="SvgjsEllipse3278" rx="1" ry="1" cx="64" cy="0" stroke="#000000" stroke-width="0.2" stroke-opacity="1" fill="#000000" fill-opacity="1" stroke-linecap="round"></ellipse><g id="SvgjsG3279" transform="matrix(1,0,0,1,66,-3)"><g id="SvgjsG3280" transform="matrix(1,0,0,1,0,0)"><text id="SvgjsText3281" font-family="Times New Roman" x="0" y="0" font-size="7" stroke="#000000" stroke-width="0.2" stroke-opacity="1" fill="#000000" fill-opacity="1" svgjs:data="{&quot;leading&quot;:&quot;1.3&quot;}"><tspan id="SvgjsTspan3282" dy="9.1" x="0" svgjs:data="{&quot;newLined&quot;:true}">(cos(0), sin(0)) = (1, 0)</tspan></text></g></g></g><g id="SvgjsG3283" transform="matrix(0.8660253882408142,0.5,-0.5,0.8660253882408142,0,0)"><line id="SvgjsLine3284" x1="0" y1="0" x2="64" y2="0" stroke="#000000" stroke-width="0.2" stroke-opacity="1" stroke-linecap="round"></line><ellipse id="SvgjsEllipse3285" rx="1" ry="1" cx="64" cy="0" stroke="#000000" stroke-width="0.2" stroke-opacity="1" fill="#000000" fill-opacity="1" stroke-linecap="round"></ellipse><g id="SvgjsG3286" transform="matrix(1,0,0,1,66,-3)"><g id="SvgjsG3287" transform="matrix(0.8660253882408142,-0.5,0.5,0.8660253882408142,0,0)"><text id="SvgjsText3288" font-family="Times New Roman" x="0" y="0" font-size="7" stroke="#000000" stroke-width="0.2" stroke-opacity="1" fill="#000000" fill-opacity="1" svgjs:data="{&quot;leading&quot;:&quot;1.3&quot;}"><tspan id="SvgjsTspan3289" dy="9.1" x="0" svgjs:data="{&quot;newLined&quot;:true}">(cos(30), sin(30)) = (0.866, 0.5)</tspan></text></g></g></g><g id="SvgjsG3290" transform="matrix(6.123234262925839e-17,1,-1,6.123234262925839e-17,0,0)"><line id="SvgjsLine3291" x1="0" y1="0" x2="64" y2="0" stroke="#000000" stroke-width="0.2" stroke-opacity="1" stroke-linecap="round"></line><ellipse id="SvgjsEllipse3292" rx="1" ry="1" cx="64" cy="0" stroke="#000000" stroke-width="0.2" stroke-opacity="1" fill="#000000" fill-opacity="1" stroke-linecap="round"></ellipse><g id="SvgjsG3293" transform="matrix(1,0,0,1,66,-3)"><g id="SvgjsG3294" transform="matrix(6.123234262925839e-17,-1,1,6.123234262925839e-17,0,0)"><text id="SvgjsText3295" font-family="Times New Roman" x="0" y="0" font-size="7" stroke="#000000" stroke-width="0.2" stroke-opacity="1" fill="#000000" fill-opacity="1" svgjs:data="{&quot;leading&quot;:&quot;1.3&quot;}"><tspan id="SvgjsTspan3296" dy="9.1" x="0" svgjs:data="{&quot;newLined&quot;:true}">(cos(90), sin(90)) = (0, 1)</tspan></text></g></g></g><g id="SvgjsG3297" transform="matrix(-0.7071067690849304,-0.7071067690849304,0.7071067690849304,-0.7071067690849304,0,0)"><line id="SvgjsLine3298" x1="0" y1="0" x2="64" y2="0" stroke="#000000" stroke-width="0.2" stroke-opacity="1" stroke-linecap="round"></line><ellipse id="SvgjsEllipse3299" rx="1" ry="1" cx="64" cy="0" stroke="#000000" stroke-width="0.2" stroke-opacity="1" fill="#000000" fill-opacity="1" stroke-linecap="round"></ellipse><g id="SvgjsG3300" transform="matrix(1,0,0,1,66,-3)"><g id="SvgjsG3301" transform="matrix(-0.7071067690849304,0.7071067690849304,-0.7071067690849304,-0.7071067690849304,0,0)"><text id="SvgjsText3302" font-family="Times New Roman" x="0" y="0" font-size="7" stroke="#000000" stroke-width="0.2" stroke-opacity="1" fill="#000000" fill-opacity="1" svgjs:data="{&quot;leading&quot;:&quot;1.3&quot;}"><tspan id="SvgjsTspan3303" dy="9.1" x="0" svgjs:data="{&quot;newLined&quot;:true}">(cos(225), sin(225)) = (-0.707, -0.707)</tspan></text></g></g></g><g id="SvgjsG3304" transform="matrix(0.5,-0.8660253882408142,0.8660253882408142,0.5,0,0)"><line id="SvgjsLine3305" x1="0" y1="0" x2="64" y2="0" stroke="#000000" stroke-width="0.2" stroke-opacity="1" stroke-linecap="round"></line><ellipse id="SvgjsEllipse3306" rx="1" ry="1" cx="64" cy="0" stroke="#000000" stroke-width="0.2" stroke-opacity="1" fill="#000000" fill-opacity="1" stroke-linecap="round"></ellipse><g id="SvgjsG3307" transform="matrix(1,0,0,1,66,-3)"><g id="SvgjsG3308" transform="matrix(0.5,0.8660253882408142,-0.8660253882408142,0.5,0,0)"><text id="SvgjsText3309" font-family="Times New Roman" x="0" y="0" font-size="7" stroke="#000000" stroke-width="0.2" stroke-opacity="1" fill="#000000" fill-opacity="1" svgjs:data="{&quot;leading&quot;:&quot;1.3&quot;}"><tspan id="SvgjsTspan3310" dy="9.1" x="0" svgjs:data="{&quot;newLined&quot;:true}">(cos(300), sin(300)) = (0.5, -0.866)</tspan></text></g></g></g><path id="SvgjsPath3311" d="M20 0A20 20 0 0 1 -14.734732636820961 13.523596197809338 " stroke="#3333ff" stroke-width="0.2" stroke-opacity="1" fill="none" fill-opacity="1" stroke-linecap="round"></path><text id="SvgjsText3312" font-family="Times New Roman" x="9" y="14" font-size="7" stroke="#3333ff" stroke-width="0.2" stroke-opacity="1" fill="#3333ff" fill-opacity="1" svgjs:data="{&quot;leading&quot;:&quot;1.3&quot;}"><tspan id="SvgjsTspan3313" dy="9.1" x="9" svgjs:data="{&quot;newLined&quot;:true}">ğ‘¡</tspan></text><g id="SvgjsG3314" transform="matrix(-0.7367366552352905,0.676179826259613,-0.676179826259613,-0.7367366552352905,0,0)"><line id="SvgjsLine3315" x1="0" y1="0" x2="64" y2="0" stroke="#3333ff" stroke-width="0.2" stroke-opacity="1" stroke-linecap="round"></line><ellipse id="SvgjsEllipse3316" rx="1" ry="1" cx="64" cy="0" stroke="#3333ff" stroke-width="0.2" stroke-opacity="1" fill="#3333ff" fill-opacity="1" stroke-linecap="round"></ellipse><g id="SvgjsG3317" transform="matrix(1,0,0,1,66,-3)"><g id="SvgjsG3318" transform="matrix(-0.7367366552352905,-0.676179826259613,0.676179826259613,-0.7367366552352905,0,0)"><text id="SvgjsText3319" font-family="Times New Roman" x="0" y="0" font-size="7" stroke="#3333ff" stroke-width="0.2" stroke-opacity="1" fill="#3333ff" fill-opacity="1" svgjs:data="{&quot;leading&quot;:&quot;1.3&quot;}"><tspan id="SvgjsTspan3320" dy="9.1" x="0" svgjs:data="{&quot;newLined&quot;:true}">(cos(ğ‘¡), sin(ğ‘¡))</tspan></text></g></g></g></g></svg>