<svg xmlns="http://www.w3.org/2000/svg" version="1.1" xmlns:xlink="http://www.w3.org/1999/xlink" xmlns:svgjs="http://svgjs.dev/svgjs" preserveAspectRatio="xMidYMid" width="100%" height="100%" viewBox="0 0 297 210"><line x1="0" y1="28.5" x2="20" y2="28.5" stroke="#000000" stroke-width="0.2" stroke-opacity="1" stroke-linecap="round"></line><line x1="277" y1="28.5" x2="297" y2="28.5" stroke="#000000" stroke-width="0.2" stroke-opacity="1" stroke-linecap="round"></line><line x1="0" y1="181.5" x2="20" y2="181.5" stroke="#000000" stroke-width="0.2" stroke-opacity="1" stroke-linecap="round"></line><line x1="277" y1="181.5" x2="297" y2="181.5" stroke="#000000" stroke-width="0.2" stroke-opacity="1" stroke-linecap="round"></line><line x1="20" y1="180" x2="277" y2="180" stroke="#ff0000" stroke-width="0.75" stroke-opacity="0.5" stroke-linecap="round"></line><line x1="20" y1="180" x2="20" y2="30" stroke="#ff0000" stroke-width="0.75" stroke-opacity="0.5" stroke-linecap="round"></line><line x1="277" y1="180" x2="277" y2="30" stroke="#ff0000" stroke-width="0.75" stroke-opacity="0.5" stroke-linecap="round"></line><line x1="20" y1="30" x2="277" y2="30" stroke="#ff0000" stroke-width="0.75" stroke-opacity="0.5" stroke-linecap="round"></line><line x1="20" y1="176.66666666666666" x2="271.2888888888889" y2="180" stroke="#ff3200" stroke-width="0.75" stroke-opacity="0.5" stroke-linecap="round"></line><line x1="20" y1="176.66666666666666" x2="25.711111111111112" y2="30" stroke="#ff3200" stroke-width="0.75" stroke-opacity="0.5" stroke-linecap="round"></line><line x1="271.2888888888889" y1="180" x2="277" y2="33.333333333333336" stroke="#ff3200" stroke-width="0.75" stroke-opacity="0.5" stroke-linecap="round"></line><line x1="25.711111111111112" y1="30" x2="277" y2="33.333333333333336" stroke="#ff3200" stroke-width="0.75" stroke-opacity="0.5" stroke-linecap="round"></line><line x1="20" y1="173.33333333333334" x2="265.5777777777778" y2="180" stroke="#ff6600" stroke-width="0.75" stroke-opacity="0.5" stroke-linecap="round"></line><line x1="20" y1="173.33333333333334" x2="31.422222222222224" y2="30" stroke="#ff6600" stroke-width="0.75" stroke-opacity="0.5" stroke-linecap="round"></line><line x1="265.5777777777778" y1="180" x2="277" y2="36.666666666666664" stroke="#ff6600" stroke-width="0.75" stroke-opacity="0.5" stroke-linecap="round"></line><line x1="31.422222222222224" y1="30" x2="277" y2="36.666666666666664" stroke="#ff6600" stroke-width="0.75" stroke-opacity="0.5" stroke-linecap="round"></line><line x1="20" y1="170" x2="259.8666666666667" y2="180" stroke="#ff9900" stroke-width="0.75" stroke-opacity="0.5" stroke-linecap="round"></line><line x1="20" y1="170" x2="37.13333333333333" y2="30" stroke="#ff9900" stroke-width="0.75" stroke-opacity="0.5" stroke-linecap="round"></line><line x1="259.8666666666667" y1="180" x2="277" y2="40" stroke="#ff9900" stroke-width="0.75" stroke-opacity="0.5" stroke-linecap="round"></line><line x1="37.13333333333333" y1="30" x2="277" y2="40" stroke="#ff9900" stroke-width="0.75" stroke-opacity="0.5" stroke-linecap="round"></line><line x1="20" y1="166.66666666666666" x2="254.15555555555557" y2="180" stroke="#ffcc00" stroke-width="0.75" stroke-opacity="0.5" stroke-linecap="round"></line><line x1="20" y1="166.66666666666666" x2="42.84444444444445" y2="30" stroke="#ffcc00" stroke-width="0.75" stroke-opacity="0.5" stroke-linecap="round"></line><line x1="254.15555555555557" y1="180" x2="277" y2="43.333333333333336" stroke="#ffcc00" stroke-width="0.75" stroke-opacity="0.5" stroke-linecap="round"></line><line x1="42.84444444444445" y1="30" x2="277" y2="43.333333333333336" stroke="#ffcc00" stroke-width="0.75" stroke-opacity="0.5" stroke-linecap="round"></line><line x1="20" y1="163.33333333333334" x2="248.44444444444446" y2="180" stroke="#ffff00" stroke-width="0.75" stroke-opacity="0.5" stroke-linecap="round"></line><line x1="20" y1="163.33333333333334" x2="48.55555555555556" y2="30" stroke="#ffff00" stroke-width="0.75" stroke-opacity="0.5" stroke-linecap="round"></line><line x1="248.44444444444446" y1="180" x2="277" y2="46.66666666666667" stroke="#ffff00" stroke-width="0.75" stroke-opacity="0.5" stroke-linecap="round"></line><line x1="48.55555555555556" y1="30" x2="277" y2="46.66666666666667" stroke="#ffff00" stroke-width="0.75" stroke-opacity="0.5" stroke-linecap="round"></line><line x1="20" y1="160" x2="242.73333333333335" y2="180" stroke="#ccff00" stroke-width="0.75" stroke-opacity="0.5" stroke-linecap="round"></line><line x1="20" y1="160" x2="54.266666666666666" y2="30" stroke="#ccff00" stroke-width="0.75" stroke-opacity="0.5" stroke-linecap="round"></line><line x1="242.73333333333335" y1="180" x2="277" y2="50" stroke="#ccff00" stroke-width="0.75" stroke-opacity="0.5" stroke-linecap="round"></line><line x1="54.266666666666666" y1="30" x2="277" y2="50" stroke="#ccff00" stroke-width="0.75" stroke-opacity="0.5" stroke-linecap="round"></line><line x1="20" y1="156.66666666666666" x2="237.0222222222222" y2="180" stroke="#99ff00" stroke-width="0.75" stroke-opacity="0.5" stroke-linecap="round"></line><line x1="20" y1="156.66666666666666" x2="59.97777777777778" y2="30" stroke="#99ff00" stroke-width="0.75" stroke-opacity="0.5" stroke-linecap="round"></line><line x1="237.0222222222222" y1="180" x2="277" y2="53.33333333333333" stroke="#99ff00" stroke-width="0.75" stroke-opacity="0.5" stroke-linecap="round"></line><line x1="59.97777777777778" y1="30" x2="277" y2="53.33333333333333" stroke="#99ff00" stroke-width="0.75" stroke-opacity="0.5" stroke-linecap="round"></line><line x1="20" y1="153.33333333333334" x2="231.3111111111111" y2="180" stroke="#65ff00" stroke-width="0.75" stroke-opacity="0.5" stroke-linecap="round"></line><line x1="20" y1="153.33333333333334" x2="65.6888888888889" y2="30" stroke="#65ff00" stroke-width="0.75" stroke-opacity="0.5" stroke-linecap="round"></line><line x1="231.3111111111111" y1="180" x2="277" y2="56.66666666666667" stroke="#65ff00" stroke-width="0.75" stroke-opacity="0.5" stroke-linecap="round"></line><line x1="65.6888888888889" y1="30" x2="277" y2="56.66666666666667" stroke="#65ff00" stroke-width="0.75" stroke-opacity="0.5" stroke-linecap="round"></line><line x1="20" y1="150" x2="225.6" y2="180" stroke="#32ff00" stroke-width="0.75" stroke-opacity="0.5" stroke-linecap="round"></line><line x1="20" y1="150" x2="71.4" y2="30" stroke="#32ff00" stroke-width="0.75" stroke-opacity="0.5" stroke-linecap="round"></line><line x1="225.6" y1="180" x2="277" y2="60" stroke="#32ff00" stroke-width="0.75" stroke-opacity="0.5" stroke-linecap="round"></line><line x1="71.4" y1="30" x2="277" y2="60" stroke="#32ff00" stroke-width="0.75" stroke-opacity="0.5" stroke-linecap="round"></line><line x1="20" y1="146.66666666666666" x2="219.88888888888889" y2="180" stroke="#00ff00" stroke-width="0.75" stroke-opacity="0.5" stroke-linecap="round"></line><line x1="20" y1="146.66666666666666" x2="77.11111111111111" y2="30" stroke="#00ff00" stroke-width="0.75" stroke-opacity="0.5" stroke-linecap="round"></line><line x1="219.88888888888889" y1="180" x2="277" y2="63.333333333333336" stroke="#00ff00" stroke-width="0.75" stroke-opacity="0.5" stroke-linecap="round"></line><line x1="77.11111111111111" y1="30" x2="277" y2="63.333333333333336" stroke="#00ff00" stroke-width="0.75" stroke-opacity="0.5" stroke-linecap="round"></line><line x1="20" y1="143.33333333333334" x2="214.17777777777778" y2="180" stroke="#00ff33" stroke-width="0.75" stroke-opacity="0.5" stroke-linecap="round"></line><line x1="20" y1="143.33333333333334" x2="82.82222222222222" y2="30" stroke="#00ff33" stroke-width="0.75" stroke-opacity="0.5" stroke-linecap="round"></line><line x1="214.17777777777778" y1="180" x2="277" y2="66.66666666666666" stroke="#00ff33" stroke-width="0.75" stroke-opacity="0.5" stroke-linecap="round"></line><line x1="82.82222222222222" y1="30" x2="277" y2="66.66666666666666" stroke="#00ff33" stroke-width="0.75" stroke-opacity="0.5" stroke-linecap="round"></line><line x1="20" y1="140" x2="208.46666666666667" y2="180" stroke="#00ff65" stroke-width="0.75" stroke-opacity="0.5" stroke-linecap="round"></line><line x1="20" y1="140" x2="88.53333333333333" y2="30" stroke="#00ff65" stroke-width="0.75" stroke-opacity="0.5" stroke-linecap="round"></line><line x1="208.46666666666667" y1="180" x2="277" y2="70" stroke="#00ff65" stroke-width="0.75" stroke-opacity="0.5" stroke-linecap="round"></line><line x1="88.53333333333333" y1="30" x2="277" y2="70" stroke="#00ff65" stroke-width="0.75" stroke-opacity="0.5" stroke-linecap="round"></line><line x1="20" y1="136.66666666666666" x2="202.75555555555556" y2="180" stroke="#00ff99" stroke-width="0.75" stroke-opacity="0.5" stroke-linecap="round"></line><line x1="20" y1="136.66666666666666" x2="94.24444444444444" y2="30" stroke="#00ff99" stroke-width="0.75" stroke-opacity="0.5" stroke-linecap="round"></line><line x1="202.75555555555556" y1="180" x2="277" y2="73.33333333333334" stroke="#00ff99" stroke-width="0.75" stroke-opacity="0.5" stroke-linecap="round"></line><line x1="94.24444444444444" y1="30" x2="277" y2="73.33333333333334" stroke="#00ff99" stroke-width="0.75" stroke-opacity="0.5" stroke-linecap="round"></line><line x1="20" y1="133.33333333333334" x2="197.04444444444442" y2="180" stroke="#00ffcb" stroke-width="0.75" stroke-opacity="0.5" stroke-linecap="round"></line><line x1="20" y1="133.33333333333334" x2="99.95555555555556" y2="30" stroke="#00ffcb" stroke-width="0.75" stroke-opacity="0.5" stroke-linecap="round"></line><line x1="197.04444444444442" y1="180" x2="277" y2="76.66666666666666" stroke="#00ffcb" stroke-width="0.75" stroke-opacity="0.5" stroke-linecap="round"></line><line x1="99.95555555555556" y1="30" x2="277" y2="76.66666666666666" stroke="#00ffcb" stroke-width="0.75" stroke-opacity="0.5" stroke-linecap="round"></line><line x1="20" y1="130" x2="191.33333333333331" y2="180" stroke="#00ffff" stroke-width="0.75" stroke-opacity="0.5" stroke-linecap="round"></line><line x1="20" y1="130" x2="105.66666666666667" y2="30" stroke="#00ffff" stroke-width="0.75" stroke-opacity="0.5" stroke-linecap="round"></line><line x1="191.33333333333331" y1="180" x2="277" y2="80" stroke="#00ffff" stroke-width="0.75" stroke-opacity="0.5" stroke-linecap="round"></line><line x1="105.66666666666667" y1="30" x2="277" y2="80" stroke="#00ffff" stroke-width="0.75" stroke-opacity="0.5" stroke-linecap="round"></line><line x1="20" y1="126.66666666666666" x2="185.6222222222222" y2="180" stroke="#00cbff" stroke-width="0.75" stroke-opacity="0.5" stroke-linecap="round"></line><line x1="20" y1="126.66666666666666" x2="111.37777777777778" y2="30" stroke="#00cbff" stroke-width="0.75" stroke-opacity="0.5" stroke-linecap="round"></line><line x1="185.6222222222222" y1="180" x2="277" y2="83.33333333333334" stroke="#00cbff" stroke-width="0.75" stroke-opacity="0.5" stroke-linecap="round"></line><line x1="111.37777777777778" y1="30" x2="277" y2="83.33333333333334" stroke="#00cbff" stroke-width="0.75" stroke-opacity="0.5" stroke-linecap="round"></line><line x1="20" y1="123.33333333333334" x2="179.9111111111111" y2="180" stroke="#0099ff" stroke-width="0.75" stroke-opacity="0.5" stroke-linecap="round"></line><line x1="20" y1="123.33333333333334" x2="117.08888888888889" y2="30" stroke="#0099ff" stroke-width="0.75" stroke-opacity="0.5" stroke-linecap="round"></line><line x1="179.9111111111111" y1="180" x2="277" y2="86.66666666666666" stroke="#0099ff" stroke-width="0.75" stroke-opacity="0.5" stroke-linecap="round"></line><line x1="117.08888888888889" y1="30" x2="277" y2="86.66666666666666" stroke="#0099ff" stroke-width="0.75" stroke-opacity="0.5" stroke-linecap="round"></line><line x1="20" y1="120" x2="174.2" y2="180" stroke="#0065ff" stroke-width="0.75" stroke-opacity="0.5" stroke-linecap="round"></line><line x1="20" y1="120" x2="122.8" y2="30" stroke="#0065ff" stroke-width="0.75" stroke-opacity="0.5" stroke-linecap="round"></line><line x1="174.2" y1="180" x2="277" y2="90" stroke="#0065ff" stroke-width="0.75" stroke-opacity="0.5" stroke-linecap="round"></line><line x1="122.8" y1="30" x2="277" y2="90" stroke="#0065ff" stroke-width="0.75" stroke-opacity="0.5" stroke-linecap="round"></line><line x1="20" y1="116.66666666666666" x2="168.48888888888888" y2="180" stroke="#0033ff" stroke-width="0.75" stroke-opacity="0.5" stroke-linecap="round"></line><line x1="20" y1="116.66666666666666" x2="128.51111111111112" y2="30" stroke="#0033ff" stroke-width="0.75" stroke-opacity="0.5" stroke-linecap="round"></line><line x1="168.48888888888888" y1="180" x2="277" y2="93.33333333333334" stroke="#0033ff" stroke-width="0.75" stroke-opacity="0.5" stroke-linecap="round"></line><line x1="128.51111111111112" y1="30" x2="277" y2="93.33333333333334" stroke="#0033ff" stroke-width="0.75" stroke-opacity="0.5" stroke-linecap="round"></line><line x1="20" y1="113.33333333333333" x2="162.77777777777777" y2="180" stroke="#0000ff" stroke-width="0.75" stroke-opacity="0.5" stroke-linecap="round"></line><line x1="20" y1="113.33333333333333" x2="134.22222222222223" y2="30" stroke="#0000ff" stroke-width="0.75" stroke-opacity="0.5" stroke-linecap="round"></line><line x1="162.77777777777777" y1="180" x2="277" y2="96.66666666666667" stroke="#0000ff" stroke-width="0.75" stroke-opacity="0.5" stroke-linecap="round"></line><line x1="134.22222222222223" y1="30" x2="277" y2="96.66666666666667" stroke="#0000ff" stroke-width="0.75" stroke-opacity="0.5" stroke-linecap="round"></line><line x1="20" y1="110" x2="157.06666666666666" y2="180" stroke="#3200ff" stroke-width="0.75" stroke-opacity="0.5" stroke-linecap="round"></line><line x1="20" y1="110" x2="139.93333333333334" y2="30" stroke="#3200ff" stroke-width="0.75" stroke-opacity="0.5" stroke-linecap="round"></line><line x1="157.06666666666666" y1="180" x2="277" y2="100" stroke="#3200ff" stroke-width="0.75" stroke-opacity="0.5" stroke-linecap="round"></line><line x1="139.93333333333334" y1="30" x2="277" y2="100" stroke="#3200ff" stroke-width="0.75" stroke-opacity="0.5" stroke-linecap="round"></line><line x1="20" y1="106.66666666666667" x2="151.35555555555555" y2="180" stroke="#6600ff" stroke-width="0.75" stroke-opacity="0.5" stroke-linecap="round"></line><line x1="20" y1="106.66666666666667" x2="145.64444444444445" y2="30" stroke="#6600ff" stroke-width="0.75" stroke-opacity="0.5" stroke-linecap="round"></line><line x1="151.35555555555555" y1="180" x2="277" y2="103.33333333333333" stroke="#6600ff" stroke-width="0.75" stroke-opacity="0.5" stroke-linecap="round"></line><line x1="145.64444444444445" y1="30" x2="277" y2="103.33333333333333" stroke="#6600ff" stroke-width="0.75" stroke-opacity="0.5" stroke-linecap="round"></line><line x1="20" y1="103.33333333333333" x2="145.64444444444445" y2="180" stroke="#9800ff" stroke-width="0.75" stroke-opacity="0.5" stroke-linecap="round"></line><line x1="20" y1="103.33333333333333" x2="151.35555555555555" y2="30" stroke="#9800ff" stroke-width="0.75" stroke-opacity="0.5" stroke-linecap="round"></line><line x1="145.64444444444445" y1="180" x2="277" y2="106.66666666666667" stroke="#9800ff" stroke-width="0.75" stroke-opacity="0.5" stroke-linecap="round"></line><line x1="151.35555555555555" y1="30" x2="277" y2="106.66666666666667" stroke="#9800ff" stroke-width="0.75" stroke-opacity="0.5" stroke-linecap="round"></line><line x1="20" y1="100" x2="139.93333333333334" y2="180" stroke="#cb00ff" stroke-width="0.75" stroke-opacity="0.5" stroke-linecap="round"></line><line x1="20" y1="100" x2="157.06666666666666" y2="30" stroke="#cb00ff" stroke-width="0.75" stroke-opacity="0.5" stroke-linecap="round"></line><line x1="139.93333333333334" y1="180" x2="277" y2="110" stroke="#cb00ff" stroke-width="0.75" stroke-opacity="0.5" stroke-linecap="round"></line><line x1="157.06666666666666" y1="30" x2="277" y2="110" stroke="#cb00ff" stroke-width="0.75" stroke-opacity="0.5" stroke-linecap="round"></line><line x1="20" y1="96.66666666666667" x2="134.22222222222223" y2="180" stroke="#ff00ff" stroke-width="0.75" stroke-opacity="0.5" stroke-linecap="round"></line><line x1="20" y1="96.66666666666667" x2="162.77777777777777" y2="30" stroke="#ff00ff" stroke-width="0.75" stroke-opacity="0.5" stroke-linecap="round"></line><line x1="134.22222222222223" y1="180" x2="277" y2="113.33333333333333" stroke="#ff00ff" stroke-width="0.75" stroke-opacity="0.5" stroke-linecap="round"></line><line x1="162.77777777777777" y1="30" x2="277" y2="113.33333333333333" stroke="#ff00ff" stroke-width="0.75" stroke-opacity="0.5" stroke-linecap="round"></line><line x1="20" y1="93.33333333333333" x2="128.51111111111112" y2="180" stroke="#ff00cb" stroke-width="0.75" stroke-opacity="0.5" stroke-linecap="round"></line><line x1="20" y1="93.33333333333333" x2="168.48888888888888" y2="30" stroke="#ff00cb" stroke-width="0.75" stroke-opacity="0.5" stroke-linecap="round"></line><line x1="128.51111111111112" y1="180" x2="277" y2="116.66666666666667" stroke="#ff00cb" stroke-width="0.75" stroke-opacity="0.5" stroke-linecap="round"></line><line x1="168.48888888888888" y1="30" x2="277" y2="116.66666666666667" stroke="#ff00cb" stroke-width="0.75" stroke-opacity="0.5" stroke-linecap="round"></line><line x1="20" y1="90" x2="122.80000000000001" y2="180" stroke="#ff0098" stroke-width="0.75" stroke-opacity="0.5" stroke-linecap="round"></line><line x1="20" y1="90" x2="174.2" y2="30" stroke="#ff0098" stroke-width="0.75" stroke-opacity="0.5" stroke-linecap="round"></line><line x1="122.80000000000001" y1="180" x2="277" y2="120" stroke="#ff0098" stroke-width="0.75" stroke-opacity="0.5" stroke-linecap="round"></line><line x1="174.2" y1="30" x2="277" y2="120" stroke="#ff0098" stroke-width="0.75" stroke-opacity="0.5" stroke-linecap="round"></line><line x1="20" y1="86.66666666666667" x2="117.08888888888887" y2="180" stroke="#ff0066" stroke-width="0.75" stroke-opacity="0.5" stroke-linecap="round"></line><line x1="20" y1="86.66666666666667" x2="179.91111111111113" y2="30" stroke="#ff0066" stroke-width="0.75" stroke-opacity="0.5" stroke-linecap="round"></line><line x1="117.08888888888887" y1="180" x2="277" y2="123.33333333333333" stroke="#ff0066" stroke-width="0.75" stroke-opacity="0.5" stroke-linecap="round"></line><line x1="179.91111111111113" y1="30" x2="277" y2="123.33333333333333" stroke="#ff0066" stroke-width="0.75" stroke-opacity="0.5" stroke-linecap="round"></line><line x1="20" y1="83.33333333333333" x2="111.37777777777777" y2="180" stroke="#ff0033" stroke-width="0.75" stroke-opacity="0.5" stroke-linecap="round"></line><line x1="20" y1="83.33333333333333" x2="185.62222222222223" y2="30" stroke="#ff0033" stroke-width="0.75" stroke-opacity="0.5" stroke-linecap="round"></line><line x1="111.37777777777777" y1="180" x2="277" y2="126.66666666666667" stroke="#ff0033" stroke-width="0.75" stroke-opacity="0.5" stroke-linecap="round"></line><line x1="185.62222222222223" y1="30" x2="277" y2="126.66666666666667" stroke="#ff0033" stroke-width="0.75" stroke-opacity="0.5" stroke-linecap="round"></line><line x1="20" y1="80" x2="105.66666666666666" y2="180" stroke="#ff0000" stroke-width="0.75" stroke-opacity="0.5" stroke-linecap="round"></line><line x1="20" y1="80" x2="191.33333333333334" y2="30" stroke="#ff0000" stroke-width="0.75" stroke-opacity="0.5" stroke-linecap="round"></line><line x1="105.66666666666666" y1="180" x2="277" y2="130" stroke="#ff0000" stroke-width="0.75" stroke-opacity="0.5" stroke-linecap="round"></line><line x1="191.33333333333334" y1="30" x2="277" y2="130" stroke="#ff0000" stroke-width="0.75" stroke-opacity="0.5" stroke-linecap="round"></line><text x="52.125" y="101.42857142857143" font-family="Times New Roman" font-size="9" stroke="none" stroke-width="0.5" stroke-opacity="0.5" fill="#ff6600" fill-opacity="1" svgjs:data="{&quot;leading&quot;:&quot;1.3&quot;}"><tspan dy="0" x="52.125" svgjs:data="{&quot;newLined&quot;:true}">Kagawa University</tspan><tspan dy="11.700000000000001" x="52.125" svgjs:data="{&quot;newLined&quot;:true}">Open Campus YYYY/MM/DD</tspan></text></svg>