<svg id="SvgjsSvg1001" width="100%" height="100%" xmlns="http://www.w3.org/2000/svg" version="1.1" xmlns:xlink="http://www.w3.org/1999/xlink" xmlns:svgjs="http://svgjs.com/svgjs" preserveAspectRatio="xMidYMid" viewBox="0 0 210 297"><g id="SvgjsG3017" transform="matrix(1,0,0,1,8,10.5)" clip-path="url(&quot;#SvgjsClipPath3020&quot;)"><rect id="SvgjsRect3021" width="95" height="67" x="1" y="1" stroke="#000000" stroke-width="0.2" stroke-opacity="1" fill="none" fill-opacity="1" stroke-linecap="round"/><text id="SvgjsText3022" font-family="ＭＳ 明朝" x="10" y="10" font-size="8" stroke="#ff6666" stroke-width="1" stroke-opacity="0.2" fill="#ffbf00" fill-opacity="1" svgjs:data="{&quot;leading&quot;:&quot;1.3&quot;}"><tspan id="SvgjsTspan3023" dy="10.4" x="10" svgjs:data="{&quot;newLined&quot;:true}">香川大学創造工学部</tspan></text><text id="SvgjsText3024" font-family="ＭＳ 明朝" x="10" y="20" font-size="8" stroke="#ff6666" stroke-width="1" stroke-opacity="0.2" fill="#ffbf00" fill-opacity="1" svgjs:data="{&quot;leading&quot;:&quot;1.3&quot;}"><tspan id="SvgjsTspan3025" dy="10.4" x="10" svgjs:data="{&quot;newLined&quot;:true}">讃岐 太郎</tspan></text><text id="SvgjsText3026" font-family="Times New Roman" x="10" y="30" font-size="8" stroke="#ff6666" stroke-width="1" stroke-opacity="0.2" fill="#ffbf00" fill-opacity="1" svgjs:data="{&quot;leading&quot;:&quot;1.3&quot;}"><tspan id="SvgjsTspan3027" dy="10.4" x="10" svgjs:data="{&quot;newLined&quot;:true}">SANUKI, Taro</tspan></text><text id="SvgjsText3028" font-family="Courier New" x="10" y="43" font-size="5" stroke="#ff6666" stroke-width="1" stroke-opacity="0.2" fill="#ffbf00" fill-opacity="1" svgjs:data="{&quot;leading&quot;:&quot;1.3&quot;}"><tspan id="SvgjsTspan3029" dy="6.5" x="10" svgjs:data="{&quot;newLined&quot;:true}">taro.sanuki@example.com</tspan></text><g id="SvgjsG3030" transform="matrix(1,0,0,1,15,0)"><line id="SvgjsLine3031" x1="-15" y1="0" x2="5" y2="80" stroke="#ffbf00" stroke-width="1" stroke-opacity="0.2" stroke-linecap="round"/><g id="SvgjsG3032" transform="matrix(1,0,0,1,15,0)"><line id="SvgjsLine3033" x1="-15" y1="0" x2="5" y2="80" stroke="#ffbf00" stroke-width="1" stroke-opacity="0.2" stroke-linecap="round"/><g id="SvgjsG3034" transform="matrix(1,0,0,1,15,0)"><line id="SvgjsLine3035" x1="-15" y1="0" x2="5" y2="80" stroke="#ffbf00" stroke-width="1" stroke-opacity="0.2" stroke-linecap="round"/><g id="SvgjsG3036" transform="matrix(1,0,0,1,15,0)"><line id="SvgjsLine3037" x1="-15" y1="0" x2="5" y2="80" stroke="#ffbf00" stroke-width="1" stroke-opacity="0.2" stroke-linecap="round"/><g id="SvgjsG3038" transform="matrix(1,0,0,1,15,0)"><line id="SvgjsLine3039" x1="-15" y1="0" x2="5" y2="80" stroke="#ffbf00" stroke-width="1" stroke-opacity="0.2" stroke-linecap="round"/><g id="SvgjsG3040" transform="matrix(1,0,0,1,15,0)"><line id="SvgjsLine3041" x1="-15" y1="0" x2="5" y2="80" stroke="#ffbf00" stroke-width="1" stroke-opacity="0.2" stroke-linecap="round"/><g id="SvgjsG3042" transform="matrix(1,0,0,1,15,0)"><line id="SvgjsLine3043" x1="-15" y1="0" x2="5" y2="80" stroke="#ffbf00" stroke-width="1" stroke-opacity="0.2" stroke-linecap="round"/></g></g></g></g></g></g></g></g><defs id="SvgjsDefs3019"><clipPath id="SvgjsClipPath3020"><rect id="SvgjsRect3018" width="95" height="67" x="1" y="1"/></clipPath><clipPath id="SvgjsClipPath3046"><rect id="SvgjsRect3045" width="95" height="67" x="1" y="1"/></clipPath><clipPath id="SvgjsClipPath3072"><rect id="SvgjsRect3071" width="95" height="67" x="1" y="1"/></clipPath><clipPath id="SvgjsClipPath3098"><rect id="SvgjsRect3097" width="95" height="67" x="1" y="1"/></clipPath><clipPath id="SvgjsClipPath3124"><rect id="SvgjsRect3123" width="95" height="67" x="1" y="1"/></clipPath><clipPath id="SvgjsClipPath3150"><rect id="SvgjsRect3149" width="95" height="67" x="1" y="1"/></clipPath><clipPath id="SvgjsClipPath3176"><rect id="SvgjsRect3175" width="95" height="67" x="1" y="1"/></clipPath><clipPath id="SvgjsClipPath3202"><rect id="SvgjsRect3201" width="95" height="67" x="1" y="1"/></clipPath></defs><g id="SvgjsG3044" transform="matrix(1,0,0,1,8,79.5)" clip-path="url(&quot;#SvgjsClipPath3046&quot;)"><rect id="SvgjsRect3047" width="95" height="67" x="1" y="1" stroke="#000000" stroke-width="0.2" stroke-opacity="1" fill="none" fill-opacity="1" stroke-linecap="round"/><text id="SvgjsText3048" font-family="ＭＳ 明朝" x="10" y="10" font-size="8" stroke="#ff6666" stroke-width="1" stroke-opacity="0.2" fill="#7fff00" fill-opacity="1" svgjs:data="{&quot;leading&quot;:&quot;1.3&quot;}"><tspan id="SvgjsTspan3049" dy="10.4" x="10" svgjs:data="{&quot;newLined&quot;:true}">香川大学創造工学部</tspan></text><text id="SvgjsText3050" font-family="ＭＳ 明朝" x="10" y="20" font-size="8" stroke="#ff6666" stroke-width="1" stroke-opacity="0.2" fill="#7fff00" fill-opacity="1" svgjs:data="{&quot;leading&quot;:&quot;1.3&quot;}"><tspan id="SvgjsTspan3051" dy="10.4" x="10" svgjs:data="{&quot;newLined&quot;:true}">讃岐 太郎</tspan></text><text id="SvgjsText3052" font-family="Times New Roman" x="10" y="30" font-size="8" stroke="#ff6666" stroke-width="1" stroke-opacity="0.2" fill="#7fff00" fill-opacity="1" svgjs:data="{&quot;leading&quot;:&quot;1.3&quot;}"><tspan id="SvgjsTspan3053" dy="10.4" x="10" svgjs:data="{&quot;newLined&quot;:true}">SANUKI, Taro</tspan></text><text id="SvgjsText3054" font-family="Courier New" x="10" y="43" font-size="5" stroke="#ff6666" stroke-width="1" stroke-opacity="0.2" fill="#7fff00" fill-opacity="1" svgjs:data="{&quot;leading&quot;:&quot;1.3&quot;}"><tspan id="SvgjsTspan3055" dy="6.5" x="10" svgjs:data="{&quot;newLined&quot;:true}">taro.sanuki@example.com</tspan></text><g id="SvgjsG3056" transform="matrix(1,0,0,1,15,0)"><line id="SvgjsLine3057" x1="-15" y1="0" x2="5" y2="80" stroke="#7fff00" stroke-width="1" stroke-opacity="0.2" stroke-linecap="round"/><g id="SvgjsG3058" transform="matrix(1,0,0,1,15,0)"><line id="SvgjsLine3059" x1="-15" y1="0" x2="5" y2="80" stroke="#7fff00" stroke-width="1" stroke-opacity="0.2" stroke-linecap="round"/><g id="SvgjsG3060" transform="matrix(1,0,0,1,15,0)"><line id="SvgjsLine3061" x1="-15" y1="0" x2="5" y2="80" stroke="#7fff00" stroke-width="1" stroke-opacity="0.2" stroke-linecap="round"/><g id="SvgjsG3062" transform="matrix(1,0,0,1,15,0)"><line id="SvgjsLine3063" x1="-15" y1="0" x2="5" y2="80" stroke="#7fff00" stroke-width="1" stroke-opacity="0.2" stroke-linecap="round"/><g id="SvgjsG3064" transform="matrix(1,0,0,1,15,0)"><line id="SvgjsLine3065" x1="-15" y1="0" x2="5" y2="80" stroke="#7fff00" stroke-width="1" stroke-opacity="0.2" stroke-linecap="round"/><g id="SvgjsG3066" transform="matrix(1,0,0,1,15,0)"><line id="SvgjsLine3067" x1="-15" y1="0" x2="5" y2="80" stroke="#7fff00" stroke-width="1" stroke-opacity="0.2" stroke-linecap="round"/><g id="SvgjsG3068" transform="matrix(1,0,0,1,15,0)"><line id="SvgjsLine3069" x1="-15" y1="0" x2="5" y2="80" stroke="#7fff00" stroke-width="1" stroke-opacity="0.2" stroke-linecap="round"/></g></g></g></g></g></g></g></g><g id="SvgjsG3070" transform="matrix(1,0,0,1,8,148.5)" clip-path="url(&quot;#SvgjsClipPath3072&quot;)"><rect id="SvgjsRect3073" width="95" height="67" x="1" y="1" stroke="#000000" stroke-width="0.2" stroke-opacity="1" fill="none" fill-opacity="1" stroke-linecap="round"/><text id="SvgjsText3074" font-family="ＭＳ 明朝" x="10" y="10" font-size="8" stroke="#ff6666" stroke-width="1" stroke-opacity="0.2" fill="#00ff3f" fill-opacity="1" svgjs:data="{&quot;leading&quot;:&quot;1.3&quot;}"><tspan id="SvgjsTspan3075" dy="10.4" x="10" svgjs:data="{&quot;newLined&quot;:true}">香川大学創造工学部</tspan></text><text id="SvgjsText3076" font-family="ＭＳ 明朝" x="10" y="20" font-size="8" stroke="#ff6666" stroke-width="1" stroke-opacity="0.2" fill="#00ff3f" fill-opacity="1" svgjs:data="{&quot;leading&quot;:&quot;1.3&quot;}"><tspan id="SvgjsTspan3077" dy="10.4" x="10" svgjs:data="{&quot;newLined&quot;:true}">讃岐 太郎</tspan></text><text id="SvgjsText3078" font-family="Times New Roman" x="10" y="30" font-size="8" stroke="#ff6666" stroke-width="1" stroke-opacity="0.2" fill="#00ff3f" fill-opacity="1" svgjs:data="{&quot;leading&quot;:&quot;1.3&quot;}"><tspan id="SvgjsTspan3079" dy="10.4" x="10" svgjs:data="{&quot;newLined&quot;:true}">SANUKI, Taro</tspan></text><text id="SvgjsText3080" font-family="Courier New" x="10" y="43" font-size="5" stroke="#ff6666" stroke-width="1" stroke-opacity="0.2" fill="#00ff3f" fill-opacity="1" svgjs:data="{&quot;leading&quot;:&quot;1.3&quot;}"><tspan id="SvgjsTspan3081" dy="6.5" x="10" svgjs:data="{&quot;newLined&quot;:true}">taro.sanuki@example.com</tspan></text><g id="SvgjsG3082" transform="matrix(1,0,0,1,15,0)"><line id="SvgjsLine3083" x1="-15" y1="0" x2="5" y2="80" stroke="#00ff3f" stroke-width="1" stroke-opacity="0.2" stroke-linecap="round"/><g id="SvgjsG3084" transform="matrix(1,0,0,1,15,0)"><line id="SvgjsLine3085" x1="-15" y1="0" x2="5" y2="80" stroke="#00ff3f" stroke-width="1" stroke-opacity="0.2" stroke-linecap="round"/><g id="SvgjsG3086" transform="matrix(1,0,0,1,15,0)"><line id="SvgjsLine3087" x1="-15" y1="0" x2="5" y2="80" stroke="#00ff3f" stroke-width="1" stroke-opacity="0.2" stroke-linecap="round"/><g id="SvgjsG3088" transform="matrix(1,0,0,1,15,0)"><line id="SvgjsLine3089" x1="-15" y1="0" x2="5" y2="80" stroke="#00ff3f" stroke-width="1" stroke-opacity="0.2" stroke-linecap="round"/><g id="SvgjsG3090" transform="matrix(1,0,0,1,15,0)"><line id="SvgjsLine3091" x1="-15" y1="0" x2="5" y2="80" stroke="#00ff3f" stroke-width="1" stroke-opacity="0.2" stroke-linecap="round"/><g id="SvgjsG3092" transform="matrix(1,0,0,1,15,0)"><line id="SvgjsLine3093" x1="-15" y1="0" x2="5" y2="80" stroke="#00ff3f" stroke-width="1" stroke-opacity="0.2" stroke-linecap="round"/><g id="SvgjsG3094" transform="matrix(1,0,0,1,15,0)"><line id="SvgjsLine3095" x1="-15" y1="0" x2="5" y2="80" stroke="#00ff3f" stroke-width="1" stroke-opacity="0.2" stroke-linecap="round"/></g></g></g></g></g></g></g></g><g id="SvgjsG3096" transform="matrix(1,0,0,1,8,217.5)" clip-path="url(&quot;#SvgjsClipPath3098&quot;)"><rect id="SvgjsRect3099" width="95" height="67" x="1" y="1" stroke="#000000" stroke-width="0.2" stroke-opacity="1" fill="none" fill-opacity="1" stroke-linecap="round"/><text id="SvgjsText3100" font-family="ＭＳ 明朝" x="10" y="10" font-size="8" stroke="#ff6666" stroke-width="1" stroke-opacity="0.2" fill="#00ffff" fill-opacity="1" svgjs:data="{&quot;leading&quot;:&quot;1.3&quot;}"><tspan id="SvgjsTspan3101" dy="10.4" x="10" svgjs:data="{&quot;newLined&quot;:true}">香川大学創造工学部</tspan></text><text id="SvgjsText3102" font-family="ＭＳ 明朝" x="10" y="20" font-size="8" stroke="#ff6666" stroke-width="1" stroke-opacity="0.2" fill="#00ffff" fill-opacity="1" svgjs:data="{&quot;leading&quot;:&quot;1.3&quot;}"><tspan id="SvgjsTspan3103" dy="10.4" x="10" svgjs:data="{&quot;newLined&quot;:true}">讃岐 太郎</tspan></text><text id="SvgjsText3104" font-family="Times New Roman" x="10" y="30" font-size="8" stroke="#ff6666" stroke-width="1" stroke-opacity="0.2" fill="#00ffff" fill-opacity="1" svgjs:data="{&quot;leading&quot;:&quot;1.3&quot;}"><tspan id="SvgjsTspan3105" dy="10.4" x="10" svgjs:data="{&quot;newLined&quot;:true}">SANUKI, Taro</tspan></text><text id="SvgjsText3106" font-family="Courier New" x="10" y="43" font-size="5" stroke="#ff6666" stroke-width="1" stroke-opacity="0.2" fill="#00ffff" fill-opacity="1" svgjs:data="{&quot;leading&quot;:&quot;1.3&quot;}"><tspan id="SvgjsTspan3107" dy="6.5" x="10" svgjs:data="{&quot;newLined&quot;:true}">taro.sanuki@example.com</tspan></text><g id="SvgjsG3108" transform="matrix(1,0,0,1,15,0)"><line id="SvgjsLine3109" x1="-15" y1="0" x2="5" y2="80" stroke="#00ffff" stroke-width="1" stroke-opacity="0.2" stroke-linecap="round"/><g id="SvgjsG3110" transform="matrix(1,0,0,1,15,0)"><line id="SvgjsLine3111" x1="-15" y1="0" x2="5" y2="80" stroke="#00ffff" stroke-width="1" stroke-opacity="0.2" stroke-linecap="round"/><g id="SvgjsG3112" transform="matrix(1,0,0,1,15,0)"><line id="SvgjsLine3113" x1="-15" y1="0" x2="5" y2="80" stroke="#00ffff" stroke-width="1" stroke-opacity="0.2" stroke-linecap="round"/><g id="SvgjsG3114" transform="matrix(1,0,0,1,15,0)"><line id="SvgjsLine3115" x1="-15" y1="0" x2="5" y2="80" stroke="#00ffff" stroke-width="1" stroke-opacity="0.2" stroke-linecap="round"/><g id="SvgjsG3116" transform="matrix(1,0,0,1,15,0)"><line id="SvgjsLine3117" x1="-15" y1="0" x2="5" y2="80" stroke="#00ffff" stroke-width="1" stroke-opacity="0.2" stroke-linecap="round"/><g id="SvgjsG3118" transform="matrix(1,0,0,1,15,0)"><line id="SvgjsLine3119" x1="-15" y1="0" x2="5" y2="80" stroke="#00ffff" stroke-width="1" stroke-opacity="0.2" stroke-linecap="round"/><g id="SvgjsG3120" transform="matrix(1,0,0,1,15,0)"><line id="SvgjsLine3121" x1="-15" y1="0" x2="5" y2="80" stroke="#00ffff" stroke-width="1" stroke-opacity="0.2" stroke-linecap="round"/></g></g></g></g></g></g></g></g><g id="SvgjsG3122" transform="matrix(1,0,0,1,105,10.5)" clip-path="url(&quot;#SvgjsClipPath3124&quot;)"><rect id="SvgjsRect3125" width="95" height="67" x="1" y="1" stroke="#000000" stroke-width="0.2" stroke-opacity="1" fill="none" fill-opacity="1" stroke-linecap="round"/><text id="SvgjsText3126" font-family="ＭＳ 明朝" x="10" y="10" font-size="8" stroke="#ff6666" stroke-width="1" stroke-opacity="0.2" fill="#003fff" fill-opacity="1" svgjs:data="{&quot;leading&quot;:&quot;1.3&quot;}"><tspan id="SvgjsTspan3127" dy="10.4" x="10" svgjs:data="{&quot;newLined&quot;:true}">香川大学創造工学部</tspan></text><text id="SvgjsText3128" font-family="ＭＳ 明朝" x="10" y="20" font-size="8" stroke="#ff6666" stroke-width="1" stroke-opacity="0.2" fill="#003fff" fill-opacity="1" svgjs:data="{&quot;leading&quot;:&quot;1.3&quot;}"><tspan id="SvgjsTspan3129" dy="10.4" x="10" svgjs:data="{&quot;newLined&quot;:true}">讃岐 太郎</tspan></text><text id="SvgjsText3130" font-family="Times New Roman" x="10" y="30" font-size="8" stroke="#ff6666" stroke-width="1" stroke-opacity="0.2" fill="#003fff" fill-opacity="1" svgjs:data="{&quot;leading&quot;:&quot;1.3&quot;}"><tspan id="SvgjsTspan3131" dy="10.4" x="10" svgjs:data="{&quot;newLined&quot;:true}">SANUKI, Taro</tspan></text><text id="SvgjsText3132" font-family="Courier New" x="10" y="43" font-size="5" stroke="#ff6666" stroke-width="1" stroke-opacity="0.2" fill="#003fff" fill-opacity="1" svgjs:data="{&quot;leading&quot;:&quot;1.3&quot;}"><tspan id="SvgjsTspan3133" dy="6.5" x="10" svgjs:data="{&quot;newLined&quot;:true}">taro.sanuki@example.com</tspan></text><g id="SvgjsG3134" transform="matrix(1,0,0,1,15,0)"><line id="SvgjsLine3135" x1="-15" y1="0" x2="5" y2="80" stroke="#003fff" stroke-width="1" stroke-opacity="0.2" stroke-linecap="round"/><g id="SvgjsG3136" transform="matrix(1,0,0,1,15,0)"><line id="SvgjsLine3137" x1="-15" y1="0" x2="5" y2="80" stroke="#003fff" stroke-width="1" stroke-opacity="0.2" stroke-linecap="round"/><g id="SvgjsG3138" transform="matrix(1,0,0,1,15,0)"><line id="SvgjsLine3139" x1="-15" y1="0" x2="5" y2="80" stroke="#003fff" stroke-width="1" stroke-opacity="0.2" stroke-linecap="round"/><g id="SvgjsG3140" transform="matrix(1,0,0,1,15,0)"><line id="SvgjsLine3141" x1="-15" y1="0" x2="5" y2="80" stroke="#003fff" stroke-width="1" stroke-opacity="0.2" stroke-linecap="round"/><g id="SvgjsG3142" transform="matrix(1,0,0,1,15,0)"><line id="SvgjsLine3143" x1="-15" y1="0" x2="5" y2="80" stroke="#003fff" stroke-width="1" stroke-opacity="0.2" stroke-linecap="round"/><g id="SvgjsG3144" transform="matrix(1,0,0,1,15,0)"><line id="SvgjsLine3145" x1="-15" y1="0" x2="5" y2="80" stroke="#003fff" stroke-width="1" stroke-opacity="0.2" stroke-linecap="round"/><g id="SvgjsG3146" transform="matrix(1,0,0,1,15,0)"><line id="SvgjsLine3147" x1="-15" y1="0" x2="5" y2="80" stroke="#003fff" stroke-width="1" stroke-opacity="0.2" stroke-linecap="round"/></g></g></g></g></g></g></g></g><g id="SvgjsG3148" transform="matrix(1,0,0,1,105,79.5)" clip-path="url(&quot;#SvgjsClipPath3150&quot;)"><rect id="SvgjsRect3151" width="95" height="67" x="1" y="1" stroke="#000000" stroke-width="0.2" stroke-opacity="1" fill="none" fill-opacity="1" stroke-linecap="round"/><text id="SvgjsText3152" font-family="ＭＳ 明朝" x="10" y="10" font-size="8" stroke="#ff6666" stroke-width="1" stroke-opacity="0.2" fill="#7f00ff" fill-opacity="1" svgjs:data="{&quot;leading&quot;:&quot;1.3&quot;}"><tspan id="SvgjsTspan3153" dy="10.4" x="10" svgjs:data="{&quot;newLined&quot;:true}">香川大学創造工学部</tspan></text><text id="SvgjsText3154" font-family="ＭＳ 明朝" x="10" y="20" font-size="8" stroke="#ff6666" stroke-width="1" stroke-opacity="0.2" fill="#7f00ff" fill-opacity="1" svgjs:data="{&quot;leading&quot;:&quot;1.3&quot;}"><tspan id="SvgjsTspan3155" dy="10.4" x="10" svgjs:data="{&quot;newLined&quot;:true}">讃岐 太郎</tspan></text><text id="SvgjsText3156" font-family="Times New Roman" x="10" y="30" font-size="8" stroke="#ff6666" stroke-width="1" stroke-opacity="0.2" fill="#7f00ff" fill-opacity="1" svgjs:data="{&quot;leading&quot;:&quot;1.3&quot;}"><tspan id="SvgjsTspan3157" dy="10.4" x="10" svgjs:data="{&quot;newLined&quot;:true}">SANUKI, Taro</tspan></text><text id="SvgjsText3158" font-family="Courier New" x="10" y="43" font-size="5" stroke="#ff6666" stroke-width="1" stroke-opacity="0.2" fill="#7f00ff" fill-opacity="1" svgjs:data="{&quot;leading&quot;:&quot;1.3&quot;}"><tspan id="SvgjsTspan3159" dy="6.5" x="10" svgjs:data="{&quot;newLined&quot;:true}">taro.sanuki@example.com</tspan></text><g id="SvgjsG3160" transform="matrix(1,0,0,1,15,0)"><line id="SvgjsLine3161" x1="-15" y1="0" x2="5" y2="80" stroke="#7f00ff" stroke-width="1" stroke-opacity="0.2" stroke-linecap="round"/><g id="SvgjsG3162" transform="matrix(1,0,0,1,15,0)"><line id="SvgjsLine3163" x1="-15" y1="0" x2="5" y2="80" stroke="#7f00ff" stroke-width="1" stroke-opacity="0.2" stroke-linecap="round"/><g id="SvgjsG3164" transform="matrix(1,0,0,1,15,0)"><line id="SvgjsLine3165" x1="-15" y1="0" x2="5" y2="80" stroke="#7f00ff" stroke-width="1" stroke-opacity="0.2" stroke-linecap="round"/><g id="SvgjsG3166" transform="matrix(1,0,0,1,15,0)"><line id="SvgjsLine3167" x1="-15" y1="0" x2="5" y2="80" stroke="#7f00ff" stroke-width="1" stroke-opacity="0.2" stroke-linecap="round"/><g id="SvgjsG3168" transform="matrix(1,0,0,1,15,0)"><line id="SvgjsLine3169" x1="-15" y1="0" x2="5" y2="80" stroke="#7f00ff" stroke-width="1" stroke-opacity="0.2" stroke-linecap="round"/><g id="SvgjsG3170" transform="matrix(1,0,0,1,15,0)"><line id="SvgjsLine3171" x1="-15" y1="0" x2="5" y2="80" stroke="#7f00ff" stroke-width="1" stroke-opacity="0.2" stroke-linecap="round"/><g id="SvgjsG3172" transform="matrix(1,0,0,1,15,0)"><line id="SvgjsLine3173" x1="-15" y1="0" x2="5" y2="80" stroke="#7f00ff" stroke-width="1" stroke-opacity="0.2" stroke-linecap="round"/></g></g></g></g></g></g></g></g><g id="SvgjsG3174" transform="matrix(1,0,0,1,105,148.5)" clip-path="url(&quot;#SvgjsClipPath3176&quot;)"><rect id="SvgjsRect3177" width="95" height="67" x="1" y="1" stroke="#000000" stroke-width="0.2" stroke-opacity="1" fill="none" fill-opacity="1" stroke-linecap="round"/><text id="SvgjsText3178" font-family="ＭＳ 明朝" x="10" y="10" font-size="8" stroke="#ff6666" stroke-width="1" stroke-opacity="0.2" fill="#ff00bf" fill-opacity="1" svgjs:data="{&quot;leading&quot;:&quot;1.3&quot;}"><tspan id="SvgjsTspan3179" dy="10.4" x="10" svgjs:data="{&quot;newLined&quot;:true}">香川大学創造工学部</tspan></text><text id="SvgjsText3180" font-family="ＭＳ 明朝" x="10" y="20" font-size="8" stroke="#ff6666" stroke-width="1" stroke-opacity="0.2" fill="#ff00bf" fill-opacity="1" svgjs:data="{&quot;leading&quot;:&quot;1.3&quot;}"><tspan id="SvgjsTspan3181" dy="10.4" x="10" svgjs:data="{&quot;newLined&quot;:true}">讃岐 太郎</tspan></text><text id="SvgjsText3182" font-family="Times New Roman" x="10" y="30" font-size="8" stroke="#ff6666" stroke-width="1" stroke-opacity="0.2" fill="#ff00bf" fill-opacity="1" svgjs:data="{&quot;leading&quot;:&quot;1.3&quot;}"><tspan id="SvgjsTspan3183" dy="10.4" x="10" svgjs:data="{&quot;newLined&quot;:true}">SANUKI, Taro</tspan></text><text id="SvgjsText3184" font-family="Courier New" x="10" y="43" font-size="5" stroke="#ff6666" stroke-width="1" stroke-opacity="0.2" fill="#ff00bf" fill-opacity="1" svgjs:data="{&quot;leading&quot;:&quot;1.3&quot;}"><tspan id="SvgjsTspan3185" dy="6.5" x="10" svgjs:data="{&quot;newLined&quot;:true}">taro.sanuki@example.com</tspan></text><g id="SvgjsG3186" transform="matrix(1,0,0,1,15,0)"><line id="SvgjsLine3187" x1="-15" y1="0" x2="5" y2="80" stroke="#ff00bf" stroke-width="1" stroke-opacity="0.2" stroke-linecap="round"/><g id="SvgjsG3188" transform="matrix(1,0,0,1,15,0)"><line id="SvgjsLine3189" x1="-15" y1="0" x2="5" y2="80" stroke="#ff00bf" stroke-width="1" stroke-opacity="0.2" stroke-linecap="round"/><g id="SvgjsG3190" transform="matrix(1,0,0,1,15,0)"><line id="SvgjsLine3191" x1="-15" y1="0" x2="5" y2="80" stroke="#ff00bf" stroke-width="1" stroke-opacity="0.2" stroke-linecap="round"/><g id="SvgjsG3192" transform="matrix(1,0,0,1,15,0)"><line id="SvgjsLine3193" x1="-15" y1="0" x2="5" y2="80" stroke="#ff00bf" stroke-width="1" stroke-opacity="0.2" stroke-linecap="round"/><g id="SvgjsG3194" transform="matrix(1,0,0,1,15,0)"><line id="SvgjsLine3195" x1="-15" y1="0" x2="5" y2="80" stroke="#ff00bf" stroke-width="1" stroke-opacity="0.2" stroke-linecap="round"/><g id="SvgjsG3196" transform="matrix(1,0,0,1,15,0)"><line id="SvgjsLine3197" x1="-15" y1="0" x2="5" y2="80" stroke="#ff00bf" stroke-width="1" stroke-opacity="0.2" stroke-linecap="round"/><g id="SvgjsG3198" transform="matrix(1,0,0,1,15,0)"><line id="SvgjsLine3199" x1="-15" y1="0" x2="5" y2="80" stroke="#ff00bf" stroke-width="1" stroke-opacity="0.2" stroke-linecap="round"/></g></g></g></g></g></g></g></g><g id="SvgjsG3200" transform="matrix(1,0,0,1,105,217.5)" clip-path="url(&quot;#SvgjsClipPath3202&quot;)"><rect id="SvgjsRect3203" width="95" height="67" x="1" y="1" stroke="#000000" stroke-width="0.2" stroke-opacity="1" fill="none" fill-opacity="1" stroke-linecap="round"/><text id="SvgjsText3204" font-family="ＭＳ 明朝" x="10" y="10" font-size="8" stroke="#ff6666" stroke-width="1" stroke-opacity="0.2" fill="#ff0000" fill-opacity="1" svgjs:data="{&quot;leading&quot;:&quot;1.3&quot;}"><tspan id="SvgjsTspan3205" dy="10.4" x="10" svgjs:data="{&quot;newLined&quot;:true}">香川大学創造工学部</tspan></text><text id="SvgjsText3206" font-family="ＭＳ 明朝" x="10" y="20" font-size="8" stroke="#ff6666" stroke-width="1" stroke-opacity="0.2" fill="#ff0000" fill-opacity="1" svgjs:data="{&quot;leading&quot;:&quot;1.3&quot;}"><tspan id="SvgjsTspan3207" dy="10.4" x="10" svgjs:data="{&quot;newLined&quot;:true}">讃岐 太郎</tspan></text><text id="SvgjsText3208" font-family="Times New Roman" x="10" y="30" font-size="8" stroke="#ff6666" stroke-width="1" stroke-opacity="0.2" fill="#ff0000" fill-opacity="1" svgjs:data="{&quot;leading&quot;:&quot;1.3&quot;}"><tspan id="SvgjsTspan3209" dy="10.4" x="10" svgjs:data="{&quot;newLined&quot;:true}">SANUKI, Taro</tspan></text><text id="SvgjsText3210" font-family="Courier New" x="10" y="43" font-size="5" stroke="#ff6666" stroke-width="1" stroke-opacity="0.2" fill="#ff0000" fill-opacity="1" svgjs:data="{&quot;leading&quot;:&quot;1.3&quot;}"><tspan id="SvgjsTspan3211" dy="6.5" x="10" svgjs:data="{&quot;newLined&quot;:true}">taro.sanuki@example.com</tspan></text><g id="SvgjsG3212" transform="matrix(1,0,0,1,15,0)"><line id="SvgjsLine3213" x1="-15" y1="0" x2="5" y2="80" stroke="#ff0000" stroke-width="1" stroke-opacity="0.2" stroke-linecap="round"/><g id="SvgjsG3214" transform="matrix(1,0,0,1,15,0)"><line id="SvgjsLine3215" x1="-15" y1="0" x2="5" y2="80" stroke="#ff0000" stroke-width="1" stroke-opacity="0.2" stroke-linecap="round"/><g id="SvgjsG3216" transform="matrix(1,0,0,1,15,0)"><line id="SvgjsLine3217" x1="-15" y1="0" x2="5" y2="80" stroke="#ff0000" stroke-width="1" stroke-opacity="0.2" stroke-linecap="round"/><g id="SvgjsG3218" transform="matrix(1,0,0,1,15,0)"><line id="SvgjsLine3219" x1="-15" y1="0" x2="5" y2="80" stroke="#ff0000" stroke-width="1" stroke-opacity="0.2" stroke-linecap="round"/><g id="SvgjsG3220" transform="matrix(1,0,0,1,15,0)"><line id="SvgjsLine3221" x1="-15" y1="0" x2="5" y2="80" stroke="#ff0000" stroke-width="1" stroke-opacity="0.2" stroke-linecap="round"/><g id="SvgjsG3222" transform="matrix(1,0,0,1,15,0)"><line id="SvgjsLine3223" x1="-15" y1="0" x2="5" y2="80" stroke="#ff0000" stroke-width="1" stroke-opacity="0.2" stroke-linecap="round"/><g id="SvgjsG3224" transform="matrix(1,0,0,1,15,0)"><line id="SvgjsLine3225" x1="-15" y1="0" x2="5" y2="80" stroke="#ff0000" stroke-width="1" stroke-opacity="0.2" stroke-linecap="round"/></g></g></g></g></g></g></g></g></svg>